<svg width="6" height="7" viewBox="0 0 6 7" fill="none" xmlns="http://www.w3.org/2000/svg">
<path d="M3.00203 0.00976562C3.48735 0.00976562 3.97082 0.129485 4.4004 0.355975C5.86297 1.12768 6.42543 2.94541 5.65426 4.40848C5.12825 5.40615 4.09261 6.00977 2.99859 6.00977C2.78486 6.00977 2.56901 5.98677 2.35422 5.9392C2.23322 5.91225 2.15687 5.79226 2.18356 5.67122C2.21024 5.55018 2.32992 5.47433 2.45171 5.50049C3.56898 5.74892 4.72245 5.21269 5.25691 4.1989C5.91264 2.95519 5.43445 1.4094 4.19089 0.753456C3.82578 0.560794 3.41469 0.459045 3.00176 0.459045C1.59309 0.459045 0.449131 1.60312 0.449131 3.00937C0.448603 3.41901 0.548468 3.82679 0.737894 4.18913L0.795488 4.30171C0.866027 4.43385 0.881615 4.59797 0.835909 4.7465C0.772767 4.91299 0.720193 5.075 0.676865 5.23621C0.84542 5.18547 1.05123 5.11068 1.19997 5.0565L1.261 5.03456C1.37645 4.99149 1.50617 5.05254 1.54844 5.16935C1.59071 5.2859 1.53021 5.41487 1.4137 5.45689L1.35346 5.47882C1.13101 5.55943 0.826663 5.67016 0.621121 5.71615C0.603684 5.71985 0.584926 5.72223 0.567754 5.7217C0.429845 5.7217 0.345832 5.66593 0.299598 5.61889C0.22853 5.54674 0.194714 5.44552 0.198676 5.31814C0.199205 5.3036 0.201054 5.28854 0.204489 5.274C0.257856 5.04672 0.327338 4.81997 0.411352 4.60035C0.417428 4.57894 0.413729 4.54009 0.396557 4.50759L0.338699 4.39527C0.117041 3.97083 -0.000524851 3.49063 1.76141e-06 3.00911C1.76141e-06 1.35523 1.34527 0.00976562 2.99859 0.00976562H3.00203ZM2.9987 2.65261C3.19552 2.65261 3.35536 2.81277 3.35536 3.0094C3.35536 3.20602 3.19552 3.36618 2.9987 3.36618C2.80187 3.36618 2.64204 3.20602 2.64204 3.0094C2.64204 2.81277 2.80187 2.65261 2.9987 2.65261ZM4.31966 2.65261C4.51648 2.65261 4.67632 2.81277 4.67632 3.0094C4.67632 3.20602 4.51648 3.36618 4.31966 3.36618C4.12284 3.36618 3.963 3.20602 3.963 3.0094C3.963 2.81277 4.12284 2.65261 4.31966 2.65261ZM1.67771 2.65272C1.87453 2.65272 2.03437 2.81261 2.03437 3.0095C2.03437 3.20613 1.87453 3.36602 1.67771 3.36602C1.48088 3.36602 1.32105 3.20613 1.32105 3.0095C1.32105 2.81261 1.48088 2.65272 1.67771 2.65272Z" fill="#200E32"/>
</svg>
